<svg width="301" height="88" viewBox="0 0 301 88" fill="none" xmlns="http://www.w3.org/2000/svg">
<path fill-rule="evenodd" clip-rule="evenodd" d="M43.8823 87.7645C68.1178 87.7645 87.7645 68.1178 87.7645 43.8823C87.7645 19.6468 68.1178 0 43.8823 0C19.6468 0 0 19.6468 0 43.8823C0 68.1178 19.6468 87.7645 43.8823 87.7645ZM49.3666 76.3372C64.9327 73.7261 76.7939 60.1884 76.7939 43.8804C76.7939 27.5724 64.9327 14.0347 49.3666 11.4236V76.3372ZM38.3961 76.3369V67.6532H21.1218C25.7817 72.1159 31.7513 75.2219 38.3961 76.3369ZM38.3961 56.6826V49.3702H11.4263C11.8543 51.919 12.5752 54.3684 13.5533 56.6826H38.3961ZM38.3961 38.3997V31.082H13.5516C12.5732 33.3979 11.8523 35.8491 11.4248 38.3997H38.3961ZM38.3961 20.1115V11.4239C31.7493 12.5392 25.7782 15.6467 21.1177 20.1115H38.3961Z" fill="#4F46E5"/>
<path fill-rule="evenodd" clip-rule="evenodd" d="M113.607 70.8909V15.3501H134.215C138.589 15.3501 142.269 16.0832 145.216 17.5935C148.146 19.0954 150.357 21.1766 151.816 23.8409C153.261 26.4815 153.978 29.4365 153.978 32.6892C153.978 35.7892 153.286 38.6621 151.898 41.2956L151.895 41.3011C150.489 43.9142 148.307 46.0177 145.388 47.6206L145.378 47.6255C142.427 49.1922 138.691 49.951 134.215 49.951H124.885V70.8909H113.607ZM140.454 26.9424L140.446 26.9335C139.162 25.5965 136.946 24.8387 133.601 24.8387H124.885V40.4624H133.601C136.952 40.4624 139.171 39.7278 140.454 38.4361C141.827 37.054 142.546 35.1667 142.546 32.6892C142.546 30.1545 141.824 28.2756 140.463 26.951L140.454 26.9424ZM163.596 87.89L172.424 68.341H170.76L155.344 31.1129H167.594L177.785 56.8678L188.415 31.1129H200.45L175.636 87.89H163.596ZM202.734 70.8909V13.8047H214.012V70.8909H202.734ZM228.184 69.1722L228.179 69.1695C225.151 67.4047 222.734 64.9695 220.932 61.876L220.925 61.8633C219.168 58.7017 218.3 55.0742 218.3 51.0019C218.3 46.9269 219.195 43.3205 221.008 40.2067C222.808 37.0626 225.226 34.6003 228.256 32.8343L228.261 32.8316C231.347 31.0639 234.8 30.1857 238.601 30.1857C242.351 30.1857 245.753 31.0643 248.789 32.8328C251.871 34.5984 254.291 37.0623 256.043 40.2115C257.854 43.3242 258.747 46.929 258.747 51.0019C258.747 55.077 257.853 58.7067 256.043 61.8692C254.29 64.9696 251.868 67.4074 248.787 69.1722C245.702 70.939 242.276 71.8181 238.524 71.8181C234.723 71.8181 231.27 70.9399 228.184 69.1722ZM244.687 42.9369L244.68 42.9301C242.91 41.1005 240.893 40.2152 238.601 40.2152C236.197 40.2152 234.131 41.1071 232.368 42.9298C230.704 44.6508 229.809 47.2959 229.809 51.0019C229.809 54.7012 230.701 57.3756 232.368 59.151C234.131 60.9227 236.172 61.7886 238.524 61.7886C240.877 61.7886 242.92 60.9215 244.684 59.1473C246.399 57.3715 247.316 54.6989 247.316 51.0019C247.316 47.3007 246.397 44.6585 244.687 42.9369ZM262.242 70.8909V31.1129H272.287L272.885 36.1706C274.003 34.6198 275.409 33.3286 277.098 32.3006L277.104 32.2967C279.484 30.881 282.252 30.1857 285.382 30.1857C290.257 30.1857 294.132 31.7404 296.906 34.9158C299.674 38.0848 301 42.6625 301 48.5293V70.8909H289.722V49.4565C289.722 46.243 289.071 43.8995 287.874 42.3235C286.718 40.802 284.892 39.9834 282.235 39.9834C279.668 39.9834 277.589 40.882 275.943 42.6795C274.358 44.4645 273.52 47.0003 273.52 50.3837V70.8909H262.242Z" fill="black"/>
</svg>
